<svg width="211" height="48" viewBox="0 0 211 48" fill="none" xmlns="http://www.w3.org/2000/svg">
<path fill-rule="evenodd" clip-rule="evenodd" d="M29.6218 11.813V8.08916C29.6218 6.33678 30.3194 4.75367 31.4754 3.59869C32.6314 2.44371 34.2159 1.72682 35.9699 1.72682H45.9454V4.77357H42.9756V12.1814H52.1439C53.0508 12.1814 53.8779 11.7931 54.4958 11.1956C55.0937 10.5982 55.4625 9.77184 55.4625 8.84586V1.74674H58.5119V11.4247C58.5119 13.177 57.7944 14.7602 56.6384 15.9151C55.4824 17.0701 53.8979 17.787 52.1439 17.787H42.7464C42.3179 20.097 41.3014 21.8892 39.966 23.2035C37.7039 25.4935 32.5517 26.3697 29.7813 26.3697V20.5251C31.8441 20.5251 36.1891 19.8879 37.8235 18.2649C37.963 18.1255 38.1125 17.9563 38.252 17.787H29.6119V11.813H29.6218ZM5.40556 4.56449H2.9939V1.74674H8.43508V8.84586C8.43508 9.77184 8.82374 10.5982 9.42167 11.1956C10.0196 11.7931 10.8467 12.1814 11.7735 12.1814H25.8947V17.787H11.7735C10.0196 17.787 8.41515 17.0701 7.25915 15.9151C6.12307 14.7602 5.40556 13.177 5.40556 11.4247V4.56449ZM40.0258 4.77357H35.9699C35.063 4.77357 34.2359 5.14197 33.6379 5.73938C33.0201 6.33678 32.6513 7.1831 32.6513 8.08916V12.1913H39.9461L40.0258 4.78354V4.77357ZM13.3581 20.5251H22.3071V24.4779H13.3581V20.5251ZM47.1313 20.5251H57.6051V26.3697H54.5556V24.6173H47.1412V20.5151L47.1313 20.5251Z" fill="white"/>
<path d="M120.816 4.02682C120.547 4.02682 120.318 4.12639 120.179 4.29565C120.009 4.46492 119.91 4.68396 119.91 4.93288V8.55712H116.86V4.93288C116.86 3.83764 117.309 2.87185 118.016 2.15497H118.036C118.654 1.51774 119.501 1.10951 120.448 1.0199V0.999985H128.729V4.02682H120.816ZM128.729 0.999985C130.483 0.999985 132.068 1.71686 133.224 2.87184C134.38 4.0069 135.097 5.60994 135.097 7.36232H132.048C132.048 6.43635 131.679 5.60994 131.081 5.01254C130.463 4.41514 129.636 4.02682 128.729 4.02682V0.999985Z" fill="white"/>
<path d="M125.948 17.7671C125.002 17.6874 124.155 17.2493 123.517 16.6121C123.397 16.5125 123.288 16.3632 123.188 16.2437C122.072 17.1896 120.637 17.787 119.042 17.787H113.103C112.007 17.787 111.02 17.339 110.322 16.6121H110.302C109.605 15.9151 109.146 14.9195 109.146 13.8342V1.74675H112.196V11.4247C112.196 11.6736 112.296 11.9026 112.465 12.0619C112.605 12.2312 112.834 12.3307 113.103 12.3307H119.042C119.949 12.3307 120.776 11.9424 121.394 11.345C121.992 10.7476 122.361 9.92121 122.361 8.99523V6.58571H125.41V11.4247C125.41 11.6736 125.51 11.9026 125.679 12.0619C125.849 12.2312 126.048 12.3307 126.297 12.3307H135.984L132.376 17.787H125.948V17.7671Z" fill="white"/>
<path d="M112.196 11.4247C112.196 13.177 111.478 14.7602 110.322 15.9151C109.166 17.0701 107.582 17.787 105.828 17.787H80.8245V12.1216H105.828C106.735 12.1216 107.582 11.7532 108.18 11.1558C108.778 10.5584 109.147 9.71211 109.147 8.80605L112.196 11.4247Z" fill="white"/>
<path d="M110.671 4.77358H90.7802C89.8733 4.77358 89.0462 5.1619 88.4482 5.7593C87.8304 6.35671 87.4617 7.18311 87.4617 8.10909V15.8753H84.4321V8.10909C84.4321 6.35671 85.1297 4.75368 86.2857 3.5987C87.4417 2.46363 89.0262 1.74675 90.7802 1.74675H110.671V4.77358Z" fill="white"/>
<path d="M81.1037 17.787C80.0275 17.787 79.0409 17.3389 78.3233 16.6121C77.6258 15.9151 77.1673 14.9195 77.1673 13.8342V4.77357H76.978C76.0512 4.77357 75.2241 5.14197 74.6261 5.73937C74.0282 6.33678 73.6595 7.1831 73.6595 8.08916V15.1684C73.6595 18.8125 72.4437 21.4112 70.6499 23.2035C68.3578 25.4935 65.2087 26.3697 62.4482 26.3697V20.5251C64.531 20.5251 66.863 19.8879 68.4874 18.2649C69.743 17.0104 70.61 15.1186 70.61 12.3805V8.09911C70.61 6.34673 71.3275 4.76362 72.4835 3.60864C73.6395 2.45366 75.2241 1.73677 76.978 1.73677H80.2168V11.2454C80.2168 11.4744 80.3165 11.6935 80.4859 11.8628C80.6254 12.032 80.8546 12.1316 81.1037 12.1316V17.7969V17.787Z" fill="white"/>
<path fill-rule="evenodd" clip-rule="evenodd" d="M9.56114 43.1268H9.44156C5.50517 43.1268 10.1591 43.1268 6.20276 43.1268C5.66462 43.1268 5.2361 43.2463 4.86737 43.4753C4.51858 43.7243 4.24951 44.0727 4.10003 44.5507C4.26944 44.8593 4.50861 45.0485 4.8873 45.1481C5.2361 45.2277 5.58489 45.2875 5.93369 45.2875L11.2254 45.2476L10.2787 46.9403C8.83366 46.9801 7.43848 47 6.05327 47C5.82406 47 5.555 47 5.22613 46.9801C4.89727 46.9602 4.56841 46.9004 4.21961 46.7909C3.89075 46.7113 3.60175 46.5619 3.35261 46.3827C3.10347 46.1935 2.98389 45.9346 2.98389 45.5961C2.98389 44.9788 3.21309 44.3416 3.62168 43.6844C4.0502 43.0472 4.58834 42.4896 5.2062 42.0416C5.844 41.6134 6.46186 41.3844 7.09965 41.3844C10.747 41.3844 5.7842 41.3844 9.43159 41.3844H10.6673C11.7436 41.3844 12.6505 41.1753 13.4078 40.787C13.368 40.3788 13.2683 39.9407 13.0391 39.4927C12.8298 39.0147 12.5907 38.5667 12.3216 38.1584L13.1687 37.0035C13.8663 38.1983 14.215 39.3333 14.215 40.4385C14.215 41.0957 14.0955 41.6134 13.8264 41.9818C13.5573 42.3502 13.2085 42.6191 12.78 42.7883C12.3714 42.9576 11.8931 43.0571 11.3749 43.0771C10.8567 43.1169 10.3484 43.1368 9.85014 43.1368H9.56114V43.1268ZM110.074 43.1268H108.778C107.333 43.1268 106.486 42.5693 106.267 41.484C106.187 41.7927 106.038 42.161 105.838 42.5792C105.629 43.0074 105.32 43.2563 104.911 43.2961C104.294 43.2961 103.775 43.1766 103.387 42.8879C102.978 42.6191 102.619 42.2905 102.36 41.8823C101.952 42.3104 101.473 42.6688 100.935 42.9277C100.397 43.1766 99.7792 43.2961 99.0617 43.2961C98.6531 43.2961 98.3441 43.2165 98.1349 43.0671C97.9057 42.9277 97.7462 42.7385 97.6366 42.5294C97.5369 42.3403 97.4672 42.161 97.4672 42.0316L97.2977 42.2009C97.0486 42.4498 96.66 42.6788 96.1218 42.8779C95.504 43.0472 94.7366 43.1268 93.8297 43.1268H91.2487C90.7305 43.1268 90.3019 43.0273 89.9531 42.8182C89.6044 42.6091 89.3552 42.3403 89.1858 42.0515C88.8968 42.7684 88.1095 43.1268 86.814 43.1268H78.5526C77.9347 43.1268 77.3966 43.0472 76.9481 42.858C76.4997 42.6688 76.101 42.3403 75.7523 41.8524C75.2141 42.3303 74.6162 42.6788 73.9784 42.8978C73.3207 43.1269 72.5932 43.2264 71.7959 43.2264C71.487 43.2264 71.198 43.1866 70.8891 43.1069C70.6001 43.0074 70.331 42.858 70.1516 42.6589C69.9424 42.4299 69.8427 42.1411 69.8427 41.7528L69.9423 40.1697H70.4406C70.5004 40.7472 70.7097 41.1156 71.0386 41.2849C71.3674 41.4541 71.776 41.5338 72.2743 41.5338C73.3207 41.5338 74.3571 41.3446 75.3038 40.9563L74.3571 36.4061L75.4533 35.5797L75.9516 38.8753C76.2206 40.5481 77.1674 41.3844 78.8117 41.3844H88.9765C88.9367 40.9762 88.837 40.558 88.6676 40.1697C88.4782 39.8013 88.2391 39.4727 87.9002 39.2437C87.5714 39.0147 87.113 38.9152 86.5848 38.9152H79.1704C79.2302 37.0831 79.7684 35.6394 80.7151 34.5342C81.6818 33.439 83.047 32.6424 84.7711 32.1048L84.6316 33.9766C83.4755 34.1857 82.5089 34.5939 81.7017 35.2113C80.8945 35.8286 80.3464 36.5056 80.0275 37.2524H85.947C86.7542 37.2524 87.4917 37.4217 88.1693 37.7303C88.847 38.039 89.3453 38.5766 89.6143 39.2935L89.694 39.5623C89.8336 40.0602 90.0827 40.4883 90.3916 40.8368C90.7205 41.1654 91.3184 41.3545 92.2452 41.3944H94.9857C95.5438 41.3944 96.1019 41.2948 96.6101 41.1256C97.1483 40.9364 97.5768 40.5281 97.9056 39.8909C98.0053 39.6619 98.1348 39.413 98.2345 39.1043H98.7527C98.6331 39.413 98.5235 39.7017 98.4239 39.9905C98.3043 40.2991 98.2544 40.5281 98.2544 40.6875C98.2544 40.8965 98.3342 41.0758 98.4837 41.1853C98.6531 41.3048 98.8524 41.3745 99.0816 41.4342C99.3307 41.474 99.53 41.4939 99.7194 41.4939C100.487 41.4939 101.125 41.2649 101.633 40.8368C102.141 40.4087 102.52 39.8113 102.749 39.0247H103.367L102.978 40.3788C103.167 40.787 103.456 41.1156 103.845 41.3048C104.234 41.5139 104.672 41.6134 105.141 41.6134C105.37 41.6134 105.549 41.4442 105.699 41.1156C105.848 40.787 105.928 40.3987 105.988 39.9805C106.028 39.5524 106.047 39.1939 106.067 38.9351V38.8156L106.805 38.5468L106.665 40.0502C106.875 40.6277 107.223 40.9961 107.672 41.1455C108.12 41.3147 108.639 41.3944 109.197 41.3944H110.891C111.967 41.3944 112.874 41.1853 113.611 40.797C113.591 40.3888 113.492 39.9507 113.263 39.5026C113.053 39.0247 112.814 38.5766 112.545 38.1684L113.372 37.0134C114.09 38.2082 114.448 39.3433 114.448 40.4485C114.448 41.1056 114.329 41.6234 114.06 41.9918C113.791 42.3602 113.442 42.629 113.013 42.7983C112.605 42.9675 112.126 43.0671 111.608 43.087C111.09 43.1269 110.582 43.1468 110.084 43.1468L110.074 43.1268ZM114.07 45.397V46.7113H110.014V45.397H114.07ZM104.882 34.9325V36.2468H100.826V34.9325H104.882ZM103.646 32.5628V33.8771H102.041V32.5628H103.646ZM48.4566 43.1268H45.9653C45.4271 43.1268 44.9986 43.0273 44.6697 42.8182C44.3209 42.6091 44.0718 42.3403 43.9024 42.0515C43.6134 42.7684 42.8062 43.1268 41.5107 43.1268H34.8138C34.4052 43.1268 34.0265 43.0671 33.6977 42.9576C33.3887 42.8381 33.1197 42.6688 32.9303 42.4C32.8307 42.6489 32.6613 42.9178 32.4321 43.2264C32.2028 43.5152 31.9338 43.6546 31.585 43.6546C31.1764 43.6546 30.7778 43.555 30.3891 43.326C30.0204 43.097 29.6716 42.8481 29.3427 42.5593C29.0139 42.2507 28.7448 42.0217 28.5555 41.8225V41.8623C28.3263 42.1909 28.107 42.4797 27.8379 42.7485C27.5888 42.9974 27.2201 43.1169 26.7417 43.1169H25.1373C24.5991 43.1169 24.1108 43.0372 23.6524 42.8281C23.204 42.639 22.915 42.4398 22.7456 42.171C22.7456 42.6688 22.606 43.2165 22.337 43.8836C22.0878 44.5407 21.6792 45.1182 21.1411 45.616C20.603 46.1139 19.9652 46.3528 19.2277 46.3528C18.7294 46.3528 18.281 46.2532 17.8724 46.0442C17.4439 45.855 17.0054 45.616 16.5968 45.3074L16.826 44.8991C17.2745 45.2078 17.7528 45.3472 18.2112 45.3472C18.5999 45.3472 19.1181 45.1779 19.736 44.8494C20.3538 44.5208 20.892 44.1126 21.3803 43.6546C21.8785 43.1766 22.1875 42.7485 22.0978 42.3602L21.3603 38.6961L22.4964 38.0987L22.5363 38.4472C22.6359 39.4727 22.7057 40.2195 22.9648 40.6675C23.2339 41.1455 23.9314 41.3645 25.0675 41.3645H26.652C26.9012 41.3645 27.1503 41.3446 27.3895 41.2849C27.6187 41.2251 27.8878 41.0558 28.1269 40.7273C28.2964 40.5182 28.4558 40.2792 28.6452 39.9606C28.8345 39.642 29.0338 39.3433 29.263 39.0346C29.5122 38.726 29.7613 38.4572 30.0702 38.2281C30.3592 37.9991 30.6881 37.8996 31.0568 37.8996C31.4056 37.8996 31.6946 38.039 31.884 38.3277C32.0932 38.6165 32.2726 38.945 32.4819 39.3533C32.6214 39.6818 32.8107 39.9905 33.0001 40.2991C33.2094 40.5879 33.4286 40.8567 33.7176 41.0359C33.9867 41.245 34.3355 41.3446 34.7441 41.3446H43.6632C43.6234 40.9364 43.5237 40.5182 43.3344 40.1299C43.1649 39.7615 42.9258 39.4329 42.567 39.2039C42.2381 38.9749 41.7997 38.8753 41.2516 38.8753H35.2124C35.2922 37.0433 35.8104 35.5996 36.777 34.4944C37.7437 33.3991 39.089 32.6026 40.8131 32.0649L40.6736 33.9368C39.5375 34.1459 38.5509 34.5541 37.7437 35.1714C36.9365 35.7887 36.3884 36.4658 36.0695 37.2126H40.6038C41.411 37.2126 42.1485 37.3818 42.846 37.6905C43.5237 37.9991 44.002 38.5368 44.291 39.2537L44.3708 39.5225C44.5103 40.0204 44.7395 40.4485 45.0684 40.797C45.3773 41.1256 45.9952 41.3147 46.9219 41.3546H49.1841C49.9515 41.3546 50.7288 41.255 51.5161 41.026C52.2834 40.797 53.0607 40.5481 53.8281 40.2593C54.3263 40.0701 54.715 39.9308 54.9841 39.8511C54.8147 39.7914 54.4858 39.6619 54.0373 39.4628C53.3995 39.174 52.7418 38.9052 52.0841 38.6563C51.4264 38.4074 50.8484 38.2879 50.3501 38.2879C50.2106 38.2879 50.0611 38.3675 49.9415 38.497C49.8219 38.6364 49.7123 38.8056 49.6126 38.9948C49.513 39.184 49.4233 39.3831 49.3436 39.5723L48.935 39.4927V39.3533C49.0546 39.0645 49.224 38.7559 49.4133 38.3875C49.6027 38.039 49.8219 37.7104 50.091 37.4217C50.3601 37.1329 50.669 36.9935 50.9979 36.9935C51.5559 36.9935 52.1339 37.0931 52.7119 37.3022C53.3099 37.5113 53.9078 37.7502 54.5057 38.039C55.0837 38.2879 55.6617 38.5169 56.2397 38.7359C56.8177 38.945 57.4555 39.0844 58.1133 39.1442L57.5153 40.6078C57.2662 40.568 57.037 40.5481 56.8377 40.5481C56.2796 40.5481 55.7016 40.6675 55.0837 40.8965C54.4858 41.1255 53.848 41.3944 53.1903 41.7229C52.4528 42.0714 51.6656 42.4 50.8583 42.6888C50.0511 42.9576 49.2539 43.1169 48.4467 43.1169L48.4566 43.1268ZM133.074 43.2165L133.114 42.639C133.134 42.0615 133.154 41.3844 133.154 40.5779V36.2368C133.154 35.3307 133.094 34.5442 132.944 33.8273L134.021 33.3494L134.1 33.8273C134.14 34.0563 134.16 34.3052 134.16 34.5641V40.4087C134.16 41.1256 134.2 41.8922 134.26 42.6489L133.064 43.2065L133.074 43.2165ZM126.188 43.1268H125.092C124.474 43.1268 123.936 43.0472 123.487 42.858C123.039 42.6688 122.64 42.3403 122.291 41.8524C121.753 42.3303 121.155 42.6788 120.517 42.8978C119.86 43.1269 119.132 43.2264 118.335 43.2264C118.026 43.2264 117.737 43.1866 117.428 43.1069C117.139 43.0074 116.87 42.858 116.691 42.6589C116.481 42.4299 116.382 42.1411 116.382 41.7528L116.481 40.1697H116.98C117.039 40.7472 117.249 41.1156 117.578 41.2849C117.906 41.4541 118.315 41.5338 118.813 41.5338C119.89 41.5338 120.896 41.3446 121.843 40.9563L120.896 36.4061L121.992 35.5797L122.491 38.8753C122.76 40.5481 123.706 41.3844 125.351 41.3844H127.025C128.101 41.3844 129.008 41.1753 129.765 40.787C129.746 40.3788 129.626 39.9407 129.417 39.4927C129.187 39.0147 128.938 38.5667 128.679 38.1584L129.526 37.0035C130.224 38.1983 130.573 39.3333 130.573 40.4385C130.573 41.0957 130.453 41.6134 130.184 41.9818C129.915 42.3502 129.566 42.6191 129.138 42.7883C128.729 42.9576 128.251 43.0571 127.733 43.0771C127.214 43.1169 126.706 43.1368 126.208 43.1368L126.188 43.1268ZM129.925 33.8273V35.1416H128.32V33.8273H129.925ZM65.2884 41.4442C65.4977 41.4442 65.7668 41.4242 66.0757 41.3645C66.3846 41.3048 66.6537 41.1952 66.8829 41.0559C67.1321 40.9165 67.2317 40.7273 67.2317 40.4983C67.2317 40.1697 67.1121 39.861 66.8431 39.5723C66.5541 39.3035 66.2451 39.0545 65.8565 38.8753C65.4877 38.6862 65.1589 38.5667 64.8699 38.5069C64.6407 38.7359 64.4214 39.0048 64.1723 39.3533C63.9232 39.6818 63.8036 40.0303 63.8036 40.3788C63.8036 40.6476 63.8634 40.8766 64.0128 41.016C64.1823 41.1853 64.3616 41.2849 64.5909 41.3446C64.8201 41.4043 65.0692 41.4442 65.3084 41.4442H65.2884ZM64.9197 43.2165C63.7239 43.2165 63.0861 42.619 63.0661 41.4242C63.0661 40.8268 63.1658 40.2294 63.395 39.6719C63.6441 39.0944 63.8933 38.5965 64.1623 38.1684L63.6641 37.9394L64.3018 36.2667L64.4912 36.3662C65.0094 36.5953 65.5376 36.8442 66.0558 37.1528C66.5939 37.4416 67.0224 37.81 67.3712 38.2481C67.72 38.6961 67.9094 39.2537 67.9094 39.9407C67.9094 40.8866 67.6802 41.6732 67.2118 42.2905C66.7135 42.9078 65.9761 43.2165 64.9197 43.2165ZM31.4554 41.9121C31.6248 41.9121 31.7843 41.8524 31.9039 41.7429C32.0434 41.6433 32.1132 41.4939 32.1132 41.3346C32.1132 41.1056 31.9437 40.6775 31.5949 40.0602C31.2661 39.4229 31.017 39.1143 30.8575 39.1143C30.6482 39.1143 30.4688 39.1939 30.2596 39.3632C30.0304 39.5524 29.851 39.7316 29.6816 39.9606C29.542 40.1896 29.4125 40.3489 29.3527 40.4784C29.542 40.7472 29.851 41.0359 30.2994 41.3844C30.7479 41.7329 31.1465 41.9221 31.4554 41.9221V41.9121ZM16.7363 43.2165L16.7563 42.639C16.7961 42.0615 16.8161 41.3844 16.8161 40.5779V36.2368C16.8161 35.3307 16.7363 34.5442 16.6068 33.8273L17.6831 33.3494L17.7628 33.8273C17.8026 34.0563 17.8226 34.3052 17.8226 34.5641V40.4087C17.8226 41.1256 17.8624 41.8922 17.9222 42.6489L16.7264 43.2065L16.7363 43.2165ZM13.5673 33.8273V35.1416H11.9828V33.8273H13.5673Z" fill="white"/>
<path fill-rule="evenodd" clip-rule="evenodd" d="M188.977 28.1905C192.16 0.753329 207.687 5.95845 201.261 14.0003C198.919 16.932 191.59 23.0804 188.977 28.1905ZM190.158 8.10294C173.959 31.7262 146.298 33.2396 148.028 15.1879C149.644 -1.79155 169.813 25.6321 190.158 8.10294ZM188.977 28.1905C191.739 25.0213 194.929 22.0421 197.386 20.0198C219.896 1.49304 201.369 -5.56476 190.158 8.10294C182.13 13.2538 172.039 11.9508 162.721 7.28858C152.826 2.34812 143.875 10.7157 147.777 22.0692C149.447 26.9079 156.097 32.8052 163.718 36.117C173.979 40.5688 186.663 39.9784 188.977 28.1905Z" fill="white"/>
<path fill-rule="evenodd" clip-rule="evenodd" d="M178.859 41.1457C180.725 41.0642 184.179 39.9377 186.324 39.0419C191.393 36.911 188.305 44.7696 186.195 46.3847C182.435 49.2893 171.095 41.4986 178.852 41.1524L178.859 41.1457Z" fill="white"/>
</svg>
