<?xml version="1.0" encoding="UTF-8"?>
<svg id="Layer_2" data-name="Layer 2" xmlns="http://www.w3.org/2000/svg" viewBox="0 0 90.14 67.88" opacity="0.6">
  <defs>
    <style>
      .cls-1 {
        fill: #ededed;
        fill-rule: evenodd;
        stroke-width: 0px;
      }
    </style>
  </defs>
  <g id="Layer_2-2" data-name="Layer 2">
    <g id="Layer_1-2" data-name="Layer 1-2">
      <g>
        <path class="cls-1" d="m62.09,40.11C66.78-.32,89.66,7.35,80.19,19.2c-3.45,4.32-14.25,13.38-18.1,20.91h0Zm1.74-29.59C39.96,45.33-.8,47.56,1.75,20.96c2.4-25.02,32.12,15.39,62.08-10.44h0Zm-1.74,29.59c4.09-4.67,8.77-9.06,12.39-12.04C107.65.77,80.35-9.63,63.83,10.51c-11.83,7.59-26.68,5.67-40.43-1.2C8.84,2.03-4.37,14.36,1.38,31.09c2.46,7.13,12.26,15.82,23.49,20.7,15.12,6.56,33.81,5.69,37.22-11.68h0Z"/>
        <path class="cls-1" d="m47.18,59.2c2.75-.12,7.86-1.78,11-3.1,7.47-3.14,2.92,8.44-.19,10.82-5.54,4.28-22.23-7.2-10.82-7.71h0Z"/>
      </g>
    </g>
  </g>
</svg>